<?xml version="1.0" encoding="UTF-8" standalone="no" ?>
<!DOCTYPE svg PUBLIC "-//W3C//DTD SVG 1.1//EN" "http://www.w3.org/Graphics/SVG/1.1/DTD/svg11.dtd">
<svg xmlns="http://www.w3.org/2000/svg" xmlns:xlink="http://www.w3.org/1999/xlink" version="1.1" width="100" height="100" viewBox="0 0 200 200" xml:space="preserve">
<desc>Created with Fabric.js 5.3.0</desc>
<defs>
</defs>
<g transform="matrix(1 0 0 1 100.5 100.5)" id="backgroundElement"  >
<rect style="stroke: none; stroke-width: 1; stroke-dasharray: none; stroke-linecap: butt; stroke-dashoffset: 0; stroke-linejoin: miter; stroke-miterlimit: 4; fill: rgb(255,255,255); fill-opacity: 0; fill-rule: nonzero; opacity: 1;"  x="-100" y="-100" rx="0" ry="0" width="200" height="200" />
</g>
<g transform="matrix(1 0 0 1 100 100)" id="Layer_1"  >
<path style="stroke: none; stroke-width: 1; stroke-dasharray: none; stroke-linecap: butt; stroke-dashoffset: 0; stroke-linejoin: miter; stroke-miterlimit: 4; fill: rgb(106,72,227); fill-rule: nonzero; opacity: 1;"  transform=" translate(-100, -100)" d="M 100 184.3 C 53.5 184.3 15.700000000000003 146.5 15.700000000000003 100.00000000000001 C 15.700000000000003 53.500000000000014 53.5 15.700000000000017 100 15.700000000000017 C 146.5 15.700000000000017 184.3 53.500000000000014 184.3 100.00000000000001 C 184.3 146.5 146.5 184.3 100 184.3 z M 100 23.7 C 57.9 23.7 23.700000000000003 57.900000000000006 23.700000000000003 100 C 23.700000000000003 142.1 57.900000000000006 176.3 100 176.3 C 142.1 176.3 176.3 142.10000000000002 176.3 100.00000000000001 C 176.3 57.9 142.1 23.7 100 23.7 z" stroke-linecap="round" />
</g>
<g transform="matrix(1 0 0 1 100 100)"  >
<g style=""   >
		<g transform="matrix(0.7 0 0 0.7 0 0)" id="path11"  >
<path style="stroke: rgb(106,72,227); stroke-width: 0; stroke-dasharray: none; stroke-linecap: butt; stroke-dashoffset: 0; stroke-linejoin: miter; stroke-miterlimit: 2; fill: rgb(106,72,227); fill-rule: nonzero; opacity: 1;"  transform=" translate(-100, -100)" d="M 132.7682 49.854213 L 132.76789 40.000013 L 142.62211 49.854213 L 142.62211 159.99999 L 135.2262 159.99999 L 117.98656 159.99999 L 113.54692 159.99999 L 103.69272 150.14579 L 110.28667 150.14979 L 91.867642 94.507216 L 91.867642 159.99927 L 67.232109 159.99927 L 57.377886999999994 150.14507 L 67.232109 150.14509 L 67.232109 49.854213 L 77.086309 49.854213 L 92.173345 49.854213 L 88.911388 40.000013 L 98.76561000000001 49.854213 L 117.98656000000001 107.91987 L 117.98656000000001 49.854213 Z" stroke-linecap="round" />
</g>
		<g transform="matrix(0.7 0 0 0.7 -3.45 -3.45)" id="path13"  >
<path style="stroke: rgb(106,72,227); stroke-width: 0; stroke-dasharray: none; stroke-linecap: butt; stroke-dashoffset: 0; stroke-linejoin: miter; stroke-miterlimit: 2; fill: rgb(106,72,227); fill-rule: nonzero; opacity: 1;"  transform=" translate(-95.07, -95.07)" d="M 132.76789 39.999991 L 132.76789 150.14577 L 125.372 150.14577 L 108.13236 150.14577 L 103.69272 150.14577 L 82.013442 84.653715 L 82.013442 150.14577 L 57.377887 150.14577 L 57.377887 39.999991 L 67.23210900000001 39.999991 L 82.01344200000001 39.999991 L 88.91138800000002 39.999991 L 108.13236 98.065648 L 108.13236 39.999991 Z" stroke-linecap="round" />
</g>
		<g transform="matrix(0.7 0 0 0.7 -3.45 -3.45)" id="path20"  >
<linearGradient id="SVGID_6afa1fa6-6a90-447c-ab04-6e1736eceb9c_1" gradientUnits="userSpaceOnUse" gradientTransform="matrix(2.19 0 0 2.19 -118.66 -118.66)"  x1="92.919594" y1="125.12225" x2="102.5737" y2="70.371033">
<stop offset="0%" style="stop-color:rgb(255,255,255);stop-opacity: 0.1"/>
<stop offset="100%" style="stop-color:rgb(255,255,255);stop-opacity: 0.6"/>
</linearGradient>
<path style="stroke: none; stroke-width: 0; stroke-dasharray: none; stroke-linecap: butt; stroke-dashoffset: 0; stroke-linejoin: miter; stroke-miterlimit: 2; fill: url(#SVGID_6afa1fa6-6a90-447c-ab04-6e1736eceb9c_1); fill-rule: nonzero; opacity: 1;"  transform=" translate(-95.07, -95.07)" d="M 132.76789 39.999991 L 132.76789 150.14577 L 125.372 150.14577 L 108.13236 150.14577 L 103.69272 150.14577 L 82.013442 84.653715 L 82.013442 150.14577 L 57.377887 150.14577 L 57.377887 39.999991 L 67.23210900000001 39.999991 L 82.01344200000001 39.999991 L 88.91138800000002 39.999991 L 108.13236 98.065648 L 108.13236 39.999991 Z" stroke-linecap="round" />
</g>
		<g transform="matrix(0.7 0 0 0.7 26.04 0.14)" id="path31"  >
<linearGradient id="SVGID_b1148aba-7514-4db4-a5cd-916e7a85af2e_2" gradientUnits="userSpaceOnUse" gradientTransform="matrix(2.19 0 0 2.19 -118.66 -118.66)"  x1="112.47568" y1="125.83183" x2="121.55246" y2="74.354881">
<stop offset="16.637%" style="stop-color:rgb(35,31,32);stop-opacity: 0.2"/>
<stop offset="37.713%" style="stop-color:rgb(22,19,20);stop-opacity: 0.17472"/>
<stop offset="72.831%" style="stop-color:rgb(6,5,5);stop-opacity: 0.13259"/>
<stop offset="100%" style="stop-color:rgb(0,0,0);stop-opacity: 0.1"/>
</linearGradient>
<path style="stroke: none; stroke-width: 0; stroke-dasharray: none; stroke-linecap: butt; stroke-dashoffset: 0; stroke-linejoin: miter; stroke-miterlimit: 2; fill: url(#SVGID_b1148aba-7514-4db4-a5cd-916e7a85af2e_2); fill-rule: nonzero; opacity: 1;"  transform=" translate(-137.2, -100.2)" d="M 132.76794 41.393662 L 141.63667 50.262333999999996 L 141.63667 159.01455 L 132.76787000000002 150.14575000000002 L 132.76787000000002 49.854213 L 132.76818000000003 49.854213 z" stroke-linecap="round" />
</g>
		<g transform="matrix(0.7 0 0 0.7 -0.79 -20.95)" id="path42"  >
<linearGradient id="SVGID_ce80faa9-27ae-4c89-bdc9-d9d7915b4d7b_3" gradientUnits="userSpaceOnUse" gradientTransform="matrix(2.19 0 0 2.19 -118.66 -118.66)"  x1="97.420273" y1="98.004677" x2="101.54308" y2="74.623062">
<stop offset="16.637%" style="stop-color:rgb(35,31,32);stop-opacity: 0.2"/>
<stop offset="37.713%" style="stop-color:rgb(22,19,20);stop-opacity: 0.17472"/>
<stop offset="72.831%" style="stop-color:rgb(6,5,5);stop-opacity: 0.13259"/>
<stop offset="100%" style="stop-color:rgb(0,0,0);stop-opacity: 0.1"/>
</linearGradient>
<path style="stroke: none; stroke-width: 0; stroke-dasharray: none; stroke-linecap: butt; stroke-dashoffset: 0; stroke-linejoin: miter; stroke-miterlimit: 2; fill: url(#SVGID_ce80faa9-27ae-4c89-bdc9-d9d7915b4d7b_3); fill-rule: nonzero; opacity: 1;"  transform=" translate(-98.87, -70.07)" d="M 108.13234 98.06567 L 89.600943 42.083194 L 97.903536 50.385788 L 107.19684000000001 78.460454 z" stroke-linecap="round" />
</g>
		<g transform="matrix(0.7 0 0 0.7 -9.49 15.28)" id="path53"  >
<linearGradient id="SVGID_0422d713-e9fe-476e-8b66-f84b99709fb6_4" gradientUnits="userSpaceOnUse" gradientTransform="matrix(2.19 0 0 2.19 -118.66 -118.66)"  x1="86.314041" y1="117.47363" x2="101.29008" y2="102.49759">
<stop offset="0%" style="stop-color:rgb(0,0,0);stop-opacity: 0.1"/>
<stop offset="27.168999999999997%" style="stop-color:rgb(6,5,5);stop-opacity: 0.23036"/>
<stop offset="62.287000000000006%" style="stop-color:rgb(22,19,20);stop-opacity: 0.39887"/>
<stop offset="83.363%" style="stop-color:rgb(35,31,32);stop-opacity: 0.5"/>
</linearGradient>
<path style="stroke: none; stroke-width: 0; stroke-dasharray: none; stroke-linecap: butt; stroke-dashoffset: 0; stroke-linejoin: miter; stroke-miterlimit: 2; fill: url(#SVGID_0422d713-e9fe-476e-8b66-f84b99709fb6_4); fill-rule: nonzero; opacity: 1;"  transform=" translate(-86.45, -121.83)" d="M 82.01342 150.14577 L 82.01342 84.653715 L 90.882224 114.42279 L 90.882224 159.01457 z" stroke-linecap="round" />
</g>
		<g transform="matrix(0.7 0 0 0.7 0 0)" id="path64"  >
<linearGradient id="SVGID_ff756ca5-60de-434e-965f-1a042789b518_5" gradientUnits="userSpaceOnUse" gradientTransform="matrix(2.19 0 0 2.19 -118.66 -118.66)"  x1="92.336861" y1="69.579681" x2="107.66313" y2="130.42032">
<stop offset="0%" style="stop-color:rgb(0,0,0);stop-opacity: 0.5"/>
<stop offset="33.605000000000004%" style="stop-color:rgb(4,4,4);stop-opacity: 0.5"/>
<stop offset="67.841%" style="stop-color:rgb(16,14,15);stop-opacity: 0.5"/>
<stop offset="100%" style="stop-color:rgb(35,31,32);stop-opacity: 0.5"/>
</linearGradient>
<path style="stroke: none; stroke-width: 0; stroke-dasharray: none; stroke-linecap: butt; stroke-dashoffset: 0; stroke-linejoin: miter; stroke-miterlimit: 2; fill: url(#SVGID_ff756ca5-60de-434e-965f-1a042789b518_5); fill-rule: nonzero; opacity: 1;"  transform=" translate(-100, -100)" d="M 132.76787 39.999991 L 108.13233999999999 39.999991 L 108.13233999999999 78.150793 L 98.76558799999998 49.85419099999999 L 88.91136699999998 39.999990999999994 L 82.01342 39.999990999999994 L 67.232087 39.999990999999994 L 57.377866 39.999990999999994 L 57.377866 150.14577 L 67.23208699999999 159.99997 L 91.86762 159.99997 L 91.86762 114.42276999999999 L 103.6927 150.14576999999997 L 113.54692 159.99996999999996 L 117.98654 159.99996999999996 L 135.2262 159.99996999999996 L 142.62209000000001 159.99996999999996 L 142.62209000000001 49.854213 Z M 141.63666999999998 159.01457 L 132.76787 150.14577 L 125.37198 150.14577 L 110.28493999999999 150.14577 L 110.28693999999999 150.14977 L 105.08773 150.14577 L 113.9554 159.01348 L 104.55508 149.61311999999998 L 92.80314 114.11206 L 82.01342 84.652622 L 90.882224 114.4217 L 90.882224 159.01348000000002 L 82.01342 150.14467 L 67.232087 150.14467 L 58.771449 150.14467 L 58.363305 149.73653 L 58.363305 40.985409 L 67.232109 40.985409 L 82.013442 40.985409 L 88.503179 40.985409 L 97.903558 50.385766 L 107.19686 78.460432 L 108.13238 98.06567 L 109.11778 78.150815 L 109.11778 40.985409 L 132.35968 40.985409 L 141.6367 50.262356 L 141.6367 159.01457 Z" stroke-linecap="round" />
</g>
		<g transform="matrix(0.7 0 0 0.7 4.83 -3.45)" id="path71"  >
<linearGradient id="SVGID_1b9e410d-768c-4ddf-8158-0a295f0f8fe6_6" gradientUnits="userSpaceOnUse" gradientTransform="matrix(2.19 0 0 2.19 -118.66 -118.66)"  x1="96.670677" y1="72.007057" x2="109.8269" y2="124.23325">
<stop offset="0%" style="stop-color:rgb(255,255,255);stop-opacity: 0.7"/>
<stop offset="100%" style="stop-color:rgb(255,255,255);stop-opacity: 0.7"/>
</linearGradient>
<path style="stroke: none; stroke-width: 0; stroke-dasharray: none; stroke-linecap: butt; stroke-dashoffset: 0; stroke-linejoin: miter; stroke-miterlimit: 2; fill: url(#SVGID_1b9e410d-768c-4ddf-8158-0a295f0f8fe6_6); fill-rule: nonzero; opacity: 1;"  transform=" translate(-106.9, -95.07)" d="M 81.02798 84.653715 L 82.01342 84.653715 L 82.01342 150.14577 L 81.02798 150.14577 Z M 107.1469 98.06567 L 108.13234 98.06567 L 88.90918 40.000013 L 87.92376200000001 40.000013 z M 131.78245 150.14577 L 132.76789000000002 150.14577 L 132.76789000000002 39.999991 L 131.78245 39.999991 z" stroke-linecap="round" />
</g>
</g>
</g>
</svg>