<?xml version="1.0" encoding="UTF-8" standalone="no" ?>
<!DOCTYPE svg PUBLIC "-//W3C//DTD SVG 1.1//EN" "http://www.w3.org/Graphics/SVG/1.1/DTD/svg11.dtd">
<svg xmlns="http://www.w3.org/2000/svg" xmlns:xlink="http://www.w3.org/1999/xlink" version="1.1" width="200" height="200" viewBox="0 0 200 200" xml:space="preserve">
<desc>Created with Fabric.js 5.3.0</desc>
<defs>
</defs>
<g transform="matrix(1 0 0 1 100 100)" id="backgroundElement"  >
<rect style="stroke: none; stroke-width: 1; stroke-dasharray: none; stroke-linecap: butt; stroke-dashoffset: 0; stroke-linejoin: miter; stroke-miterlimit: 4; fill: rgb(106,72,227); fill-rule: nonzero; opacity: 1;"  x="-100" y="-100" rx="0" ry="0" width="200" height="200" />
</g>
<g transform="matrix(1 0 0 1 100 100)" id="Layer_1"  >
<path style="stroke: none; stroke-width: 1; stroke-dasharray: none; stroke-linecap: butt; stroke-dashoffset: 0; stroke-linejoin: miter; stroke-miterlimit: 4; fill: rgb(252,252,252); fill-rule: nonzero; opacity: 1;"  transform=" translate(-100, -100)" d="M 108.2 29.3 C 108.2 27.5 106.7 26 104.9 26 C 103.10000000000001 26 101.7 27.5 101.7 29.3 C 101.7 31.1 103.10000000000001 32.5 104.9 32.5 C 106.7 32.5 108.2 31.1 108.2 29.3 z M 94.3 29.7 C 94.3 27.9 92.8 26.5 91 26.5 C 89.2 26.5 87.7 27.9 87.7 29.7 C 87.7 31.5 89.2 33 91 33 C 92.8 32.9 94.3 31.5 94.3 29.7 z M 121.9 31.6 C 121.9 29.8 120.4 28.3 118.60000000000001 28.3 C 116.80000000000001 28.3 115.30000000000001 29.8 115.30000000000001 31.6 C 115.30000000000001 33.4 116.80000000000001 34.800000000000004 118.60000000000001 34.800000000000004 C 120.4 34.8 121.9 33.4 121.9 31.6 z M 80.7 32.8 C 80.7 30.999999999999996 79.2 29.499999999999996 77.4 29.499999999999996 C 75.60000000000001 29.499999999999996 74.2 30.999999999999996 74.2 32.8 C 74.2 34.599999999999994 75.60000000000001 36.099999999999994 77.4 36.099999999999994 C 79.2 36.1 80.7 34.6 80.7 32.8 z M 134.9 36.5 C 134.9 34.7 133.4 33.2 131.6 33.2 C 129.79999999999998 33.2 128.29999999999998 34.7 128.29999999999998 36.5 C 128.29999999999998 38.3 129.79999999999998 39.8 131.6 39.8 C 133.4 39.8 134.9 38.3 134.9 36.5 z M 68 38.5 C 68 36.7 66.6 35.2 64.8 35.2 C 63 35.2 61.5 36.7 61.5 38.5 C 61.5 40.3 63 41.7 64.8 41.7 C 66.6 41.7 68 40.3 68 38.5 z M 146.7 43.9 C 146.7 42.1 145.2 40.6 143.39999999999998 40.6 C 141.59999999999997 40.6 140.09999999999997 42.1 140.09999999999997 43.9 C 140.09999999999997 45.699999999999996 141.59999999999997 47.1 143.39999999999998 47.1 C 145.2 47.2 146.7 45.7 146.7 43.9 z M 56.7 46.5 C 56.7 44.7 55.2 43.3 53.400000000000006 43.3 C 51.60000000000001 43.3 50.2 44.699999999999996 50.2 46.5 C 50.2 48.3 51.6 49.8 53.400000000000006 49.8 C 55.20000000000001 49.8 56.7 48.3 56.7 46.5 z M 156.7 53.4 C 156.7 51.6 155.29999999999998 50.199999999999996 153.5 50.199999999999996 C 151.7 50.199999999999996 150.2 51.599999999999994 150.2 53.4 C 150.2 55.199999999999996 151.7 56.699999999999996 153.5 56.699999999999996 C 155.3 56.7 156.7 55.3 156.7 53.4 z M 47.2 56.6 C 47.2 54.800000000000004 45.800000000000004 53.300000000000004 44 53.300000000000004 C 42.2 53.300000000000004 40.7 54.800000000000004 40.7 56.6 C 40.7 58.4 42.2 59.9 44 59.9 C 45.7 59.9 47.2 58.4 47.2 56.6 z M 161.5 68 C 163.3 68 164.8 66.6 164.8 64.8 C 164.8 63 163.3 61.5 161.5 61.5 C 159.7 61.5 158.3 63 158.3 64.8 C 158.3 66.6 159.7 68 161.5 68 z M 36.5 71.7 C 38.3 71.7 39.8 70.2 39.8 68.4 C 39.8 66.60000000000001 38.3 65.10000000000001 36.5 65.10000000000001 C 34.7 65.10000000000001 33.2 66.60000000000001 33.2 68.4 C 33.3 70.2 34.7 71.7 36.5 71.7 z M 167.2 80.7 C 169 80.7 170.5 79.2 170.5 77.4 C 170.5 75.60000000000001 169 74.2 167.2 74.2 C 165.39999999999998 74.2 163.89999999999998 75.60000000000001 163.89999999999998 77.4 C 163.9 79.2 165.4 80.7 167.2 80.7 z M 31.6 84.7 C 33.4 84.7 34.800000000000004 83.2 34.800000000000004 81.4 C 34.800000000000004 79.60000000000001 33.400000000000006 78.10000000000001 31.600000000000005 78.10000000000001 C 29.800000000000004 78.10000000000001 28.300000000000004 79.60000000000001 28.300000000000004 81.4 C 28.3 83.2 29.8 84.7 31.6 84.7 z M 167.1 91 C 167.1 92.8 168.6 94.3 170.4 94.3 C 172.20000000000002 94.3 173.6 92.8 173.6 91 C 173.6 89.2 172.2 87.7 170.4 87.7 C 168.60000000000002 87.7 167.1 89.2 167.1 91 z M 29.3 98.4 C 31.1 98.4 32.5 97 32.5 95.2 C 32.5 93.4 31.1 91.9 29.3 91.9 C 27.5 91.9 26 93.4 26 95.2 C 26 96.9 27.5 98.4 29.3 98.4 z M 170.7 101.6 C 168.89999999999998 101.6 167.5 103 167.5 104.8 C 167.5 106.6 168.9 108.1 170.7 108.1 C 172.5 108.1 174 106.6 174 104.8 C 174 103.1 172.5 101.6 170.7 101.6 z M 32.9 109 C 32.9 107.2 31.4 105.7 29.599999999999998 105.7 C 27.799999999999997 105.7 26.4 107.2 26.4 109 C 26.4 110.8 27.799999999999997 112.3 29.599999999999998 112.3 C 31.4 112.3 32.9 110.8 32.9 109 z M 168.4 115.3 C 166.6 115.3 165.20000000000002 116.8 165.20000000000002 118.6 C 165.20000000000002 120.39999999999999 166.60000000000002 121.89999999999999 168.4 121.89999999999999 C 170.20000000000002 121.89999999999999 171.70000000000002 120.39999999999999 171.70000000000002 118.6 C 171.7 116.8 170.2 115.3 168.4 115.3 z M 32.8 119.3 C 30.999999999999996 119.3 29.499999999999996 120.8 29.499999999999996 122.6 C 29.499999999999996 124.39999999999999 30.999999999999996 125.8 32.8 125.8 C 34.599999999999994 125.8 36.099999999999994 124.39999999999999 36.099999999999994 122.6 C 36.1 120.8 34.6 119.3 32.8 119.3 z M 163.5 128.3 C 161.7 128.3 160.2 129.8 160.2 131.60000000000002 C 160.2 133.40000000000003 161.7 134.90000000000003 163.5 134.90000000000003 C 165.3 134.90000000000003 166.8 133.40000000000003 166.8 131.60000000000002 C 166.7 129.8 165.3 128.3 163.5 128.3 z M 38.5 132 C 36.7 132 35.2 133.4 35.2 135.2 C 35.2 136.99999999999997 36.7 138.5 38.5 138.5 C 40.3 138.5 41.7 137 41.7 135.2 C 41.7 133.39999999999998 40.3 132 38.5 132 z M 156.1 140.1 C 154.29999999999998 140.1 152.9 141.6 152.9 143.4 C 152.9 145.20000000000002 154.3 146.70000000000002 156.1 146.70000000000002 C 157.9 146.70000000000002 159.4 145.20000000000002 159.4 143.4 C 159.3 141.6 157.9 140.1 156.1 140.1 z M 46.5 143.3 C 44.7 143.3 43.3 144.8 43.3 146.60000000000002 C 43.3 148.40000000000003 44.699999999999996 149.8 46.5 149.8 C 48.3 149.8 49.8 148.4 49.8 146.60000000000002 C 49.8 144.80000000000004 48.3 143.3 46.5 143.3 z M 146.6 150.2 C 144.79999999999998 150.2 143.29999999999998 151.7 143.29999999999998 153.5 C 143.29999999999998 155.3 144.79999999999998 156.7 146.6 156.7 C 148.4 156.7 149.79999999999998 155.29999999999998 149.79999999999998 153.5 C 149.8 151.7 148.4 150.2 146.6 150.2 z M 56.6 152.8 C 54.800000000000004 152.8 53.300000000000004 154.20000000000002 53.300000000000004 156 C 53.300000000000004 157.8 54.800000000000004 159.3 56.6 159.3 C 58.4 159.3 59.9 157.8 59.9 156 C 59.9 154.3 58.4 152.8 56.6 152.8 z M 135.2 158.3 C 133.39999999999998 158.3 132 159.70000000000002 132 161.5 C 132 163.3 133.4 164.8 135.2 164.8 C 137 164.8 138.5 163.3 138.5 161.5 C 138.5 159.7 137 158.3 135.2 158.3 z M 68.4 160.2 C 66.60000000000001 160.2 65.10000000000001 161.7 65.10000000000001 163.5 C 65.10000000000001 165.3 66.60000000000001 166.8 68.4 166.8 C 70.2 166.8 71.7 165.3 71.7 163.5 C 71.7 161.7 70.2 160.2 68.4 160.2 z M 122.6 163.9 C 120.8 163.9 119.3 165.4 119.3 167.20000000000002 C 119.3 169.00000000000003 120.8 170.50000000000003 122.6 170.50000000000003 C 124.39999999999999 170.50000000000003 125.8 169.00000000000003 125.8 167.20000000000002 C 125.8 165.4 124.4 163.9 122.6 163.9 z M 81.4 165.2 C 79.60000000000001 165.2 78.10000000000001 166.6 78.10000000000001 168.39999999999998 C 78.10000000000001 170.2 79.60000000000001 171.7 81.4 171.7 C 83.2 171.7 84.7 170.2 84.7 168.39999999999998 C 84.7 166.6 83.2 165.2 81.4 165.2 z M 109 167.1 C 107.2 167.1 105.7 168.6 105.7 170.4 C 105.7 172.20000000000002 107.2 173.6 109 173.6 C 110.8 173.6 112.3 172.2 112.3 170.4 C 112.3 168.5 110.8 167.1 109 167.1 z M 95.1 167.5 C 93.3 167.5 91.8 168.9 91.8 170.7 C 91.8 172.5 93.3 174 95.1 174 C 96.89999999999999 174 98.3 172.5 98.3 170.7 C 98.3 168.89999999999998 96.9 167.5 95.1 167.5 z M 100 14.5 C 52.8 14.5 14.5 52.8 14.5 100 C 14.5 147.2 52.8 185.5 100 185.5 C 147.2 185.5 185.5 147.2 185.5 100 C 185.5 52.8 147.2 14.5 100 14.5 z M 100 180.6 C 55.5 180.6 19.400000000000006 144.5 19.400000000000006 100 C 19.400000000000006 55.5 55.50000000000001 19.400000000000006 100 19.400000000000006 C 144.5 19.400000000000006 180.6 55.50000000000001 180.6 100 C 180.6 144.5 144.5 180.6 100 180.6 z" stroke-linecap="round" />
</g>
<g transform="matrix(0.7 0 0 0.7 101.83 100.16)"  >
<g style=""   >
		<g transform="matrix(1 0 0 1 0 0)" id="path11"  >
<path style="stroke: rgb(106,72,227); stroke-width: 0; stroke-dasharray: none; stroke-linecap: butt; stroke-dashoffset: 0; stroke-linejoin: miter; stroke-miterlimit: 2; fill: rgb(106,72,227); fill-rule: nonzero; opacity: 1;"  transform=" translate(-100, -100)" d="M 132.7682 49.854213 L 132.76789 40.000013 L 142.62211 49.854213 L 142.62211 159.99999 L 135.2262 159.99999 L 117.98656 159.99999 L 113.54692 159.99999 L 103.69272 150.14579 L 110.28667 150.14979 L 91.867642 94.507216 L 91.867642 159.99927 L 67.232109 159.99927 L 57.377886999999994 150.14507 L 67.232109 150.14509 L 67.232109 49.854213 L 77.086309 49.854213 L 92.173345 49.854213 L 88.911388 40.000013 L 98.76561000000001 49.854213 L 117.98656000000001 107.91987 L 117.98656000000001 49.854213 Z" stroke-linecap="round" />
</g>
		<g transform="matrix(1 0 0 1 -4.92 -4.93)" id="path13"  >
<path style="stroke: rgb(106,72,227); stroke-width: 0; stroke-dasharray: none; stroke-linecap: butt; stroke-dashoffset: 0; stroke-linejoin: miter; stroke-miterlimit: 2; fill: rgb(106,72,227); fill-rule: nonzero; opacity: 1;"  transform=" translate(-95.07, -95.07)" d="M 132.76789 39.999991 L 132.76789 150.14577 L 125.372 150.14577 L 108.13236 150.14577 L 103.69272 150.14577 L 82.013442 84.653715 L 82.013442 150.14577 L 57.377887 150.14577 L 57.377887 39.999991 L 67.23210900000001 39.999991 L 82.01344200000001 39.999991 L 88.91138800000002 39.999991 L 108.13236 98.065648 L 108.13236 39.999991 Z" stroke-linecap="round" />
</g>
		<g transform="matrix(1 0 0 1 -4.92 -4.93)" id="path20"  >
<linearGradient id="SVGID_56" gradientUnits="userSpaceOnUse" gradientTransform="matrix(2.19 0 0 2.19 -118.66 -118.66)"  x1="92.919594" y1="125.12225" x2="102.5737" y2="70.371033">
<stop offset="0%" style="stop-color:rgb(255,255,255);stop-opacity: 0.1"/>
<stop offset="100%" style="stop-color:rgb(255,255,255);stop-opacity: 0.6"/>
</linearGradient>
<path style="stroke: none; stroke-width: 0; stroke-dasharray: none; stroke-linecap: butt; stroke-dashoffset: 0; stroke-linejoin: miter; stroke-miterlimit: 2; fill: url(#SVGID_56); fill-rule: nonzero; opacity: 1;"  transform=" translate(-95.07, -95.07)" d="M 132.76789 39.999991 L 132.76789 150.14577 L 125.372 150.14577 L 108.13236 150.14577 L 103.69272 150.14577 L 82.013442 84.653715 L 82.013442 150.14577 L 57.377887 150.14577 L 57.377887 39.999991 L 67.23210900000001 39.999991 L 82.01344200000001 39.999991 L 88.91138800000002 39.999991 L 108.13236 98.065648 L 108.13236 39.999991 Z" stroke-linecap="round" />
</g>
		<g transform="matrix(1 0 0 1 37.2 0.2)" id="path31"  >
<linearGradient id="SVGID_57" gradientUnits="userSpaceOnUse" gradientTransform="matrix(2.19 0 0 2.19 -118.66 -118.66)"  x1="112.47568" y1="125.83183" x2="121.55246" y2="74.354881">
<stop offset="16.637%" style="stop-color:rgb(35,31,32);stop-opacity: 0.2"/>
<stop offset="37.713%" style="stop-color:rgb(22,19,20);stop-opacity: 0.17472"/>
<stop offset="72.831%" style="stop-color:rgb(6,5,5);stop-opacity: 0.13259"/>
<stop offset="100%" style="stop-color:rgb(0,0,0);stop-opacity: 0.1"/>
</linearGradient>
<path style="stroke: none; stroke-width: 0; stroke-dasharray: none; stroke-linecap: butt; stroke-dashoffset: 0; stroke-linejoin: miter; stroke-miterlimit: 2; fill: url(#SVGID_57); fill-rule: nonzero; opacity: 1;"  transform=" translate(-137.2, -100.2)" d="M 132.76794 41.393662 L 141.63667 50.262333999999996 L 141.63667 159.01455 L 132.76787000000002 150.14575000000002 L 132.76787000000002 49.854213 L 132.76818000000003 49.854213 z" stroke-linecap="round" />
</g>
		<g transform="matrix(1 0 0 1 -1.13 -29.93)" id="path42"  >
<linearGradient id="SVGID_58" gradientUnits="userSpaceOnUse" gradientTransform="matrix(2.19 0 0 2.19 -118.66 -118.66)"  x1="97.420273" y1="98.004677" x2="101.54308" y2="74.623062">
<stop offset="16.637%" style="stop-color:rgb(35,31,32);stop-opacity: 0.2"/>
<stop offset="37.713%" style="stop-color:rgb(22,19,20);stop-opacity: 0.17472"/>
<stop offset="72.831%" style="stop-color:rgb(6,5,5);stop-opacity: 0.13259"/>
<stop offset="100%" style="stop-color:rgb(0,0,0);stop-opacity: 0.1"/>
</linearGradient>
<path style="stroke: none; stroke-width: 0; stroke-dasharray: none; stroke-linecap: butt; stroke-dashoffset: 0; stroke-linejoin: miter; stroke-miterlimit: 2; fill: url(#SVGID_58); fill-rule: nonzero; opacity: 1;"  transform=" translate(-98.87, -70.07)" d="M 108.13234 98.06567 L 89.600943 42.083194 L 97.903536 50.385788 L 107.19684000000001 78.460454 z" stroke-linecap="round" />
</g>
		<g transform="matrix(1 0 0 1 -13.56 21.83)" id="path53"  >
<linearGradient id="SVGID_59" gradientUnits="userSpaceOnUse" gradientTransform="matrix(2.19 0 0 2.19 -118.66 -118.66)"  x1="86.314041" y1="117.47363" x2="101.29008" y2="102.49759">
<stop offset="0%" style="stop-color:rgb(0,0,0);stop-opacity: 0.1"/>
<stop offset="27.168999999999997%" style="stop-color:rgb(6,5,5);stop-opacity: 0.23036"/>
<stop offset="62.287000000000006%" style="stop-color:rgb(22,19,20);stop-opacity: 0.39887"/>
<stop offset="83.363%" style="stop-color:rgb(35,31,32);stop-opacity: 0.5"/>
</linearGradient>
<path style="stroke: none; stroke-width: 0; stroke-dasharray: none; stroke-linecap: butt; stroke-dashoffset: 0; stroke-linejoin: miter; stroke-miterlimit: 2; fill: url(#SVGID_59); fill-rule: nonzero; opacity: 1;"  transform=" translate(-86.45, -121.83)" d="M 82.01342 150.14577 L 82.01342 84.653715 L 90.882224 114.42279 L 90.882224 159.01457 z" stroke-linecap="round" />
</g>
		<g transform="matrix(1 0 0 1 0 0)" id="path64"  >
<linearGradient id="SVGID_60" gradientUnits="userSpaceOnUse" gradientTransform="matrix(2.19 0 0 2.19 -118.66 -118.66)"  x1="92.336861" y1="69.579681" x2="107.66313" y2="130.42032">
<stop offset="0%" style="stop-color:rgb(0,0,0);stop-opacity: 0.5"/>
<stop offset="33.605000000000004%" style="stop-color:rgb(4,4,4);stop-opacity: 0.5"/>
<stop offset="67.841%" style="stop-color:rgb(16,14,15);stop-opacity: 0.5"/>
<stop offset="100%" style="stop-color:rgb(35,31,32);stop-opacity: 0.5"/>
</linearGradient>
<path style="stroke: none; stroke-width: 0; stroke-dasharray: none; stroke-linecap: butt; stroke-dashoffset: 0; stroke-linejoin: miter; stroke-miterlimit: 2; fill: url(#SVGID_60); fill-rule: nonzero; opacity: 1;"  transform=" translate(-100, -100)" d="M 132.76787 39.999991 L 108.13233999999999 39.999991 L 108.13233999999999 78.150793 L 98.76558799999998 49.85419099999999 L 88.91136699999998 39.999990999999994 L 82.01342 39.999990999999994 L 67.232087 39.999990999999994 L 57.377866 39.999990999999994 L 57.377866 150.14577 L 67.23208699999999 159.99997 L 91.86762 159.99997 L 91.86762 114.42276999999999 L 103.6927 150.14576999999997 L 113.54692 159.99996999999996 L 117.98654 159.99996999999996 L 135.2262 159.99996999999996 L 142.62209000000001 159.99996999999996 L 142.62209000000001 49.854213 Z M 141.63666999999998 159.01457 L 132.76787 150.14577 L 125.37198 150.14577 L 110.28493999999999 150.14577 L 110.28693999999999 150.14977 L 105.08773 150.14577 L 113.9554 159.01348 L 104.55508 149.61311999999998 L 92.80314 114.11206 L 82.01342 84.652622 L 90.882224 114.4217 L 90.882224 159.01348000000002 L 82.01342 150.14467 L 67.232087 150.14467 L 58.771449 150.14467 L 58.363305 149.73653 L 58.363305 40.985409 L 67.232109 40.985409 L 82.013442 40.985409 L 88.503179 40.985409 L 97.903558 50.385766 L 107.19686 78.460432 L 108.13238 98.06567 L 109.11778 78.150815 L 109.11778 40.985409 L 132.35968 40.985409 L 141.6367 50.262356 L 141.6367 159.01457 Z" stroke-linecap="round" />
</g>
		<g transform="matrix(1 0 0 1 6.9 -4.93)" id="path71"  >
<linearGradient id="SVGID_61" gradientUnits="userSpaceOnUse" gradientTransform="matrix(2.19 0 0 2.19 -118.66 -118.66)"  x1="96.670677" y1="72.007057" x2="109.8269" y2="124.23325">
<stop offset="0%" style="stop-color:rgb(255,255,255);stop-opacity: 0.7"/>
<stop offset="100%" style="stop-color:rgb(255,255,255);stop-opacity: 0.7"/>
</linearGradient>
<path style="stroke: none; stroke-width: 0; stroke-dasharray: none; stroke-linecap: butt; stroke-dashoffset: 0; stroke-linejoin: miter; stroke-miterlimit: 2; fill: url(#SVGID_61); fill-rule: nonzero; opacity: 1;"  transform=" translate(-106.9, -95.07)" d="M 81.02798 84.653715 L 82.01342 84.653715 L 82.01342 150.14577 L 81.02798 150.14577 Z M 107.1469 98.06567 L 108.13234 98.06567 L 88.90918 40.000013 L 87.92376200000001 40.000013 z M 131.78245 150.14577 L 132.76789000000002 150.14577 L 132.76789000000002 39.999991 L 131.78245 39.999991 z" stroke-linecap="round" />
</g>
</g>
</g>
</svg>